<svg class="c-logo c-logo--indigoslate" data-name="Layer 1" 
    xmlns="http://www.w3.org/2000/svg" viewBox="0 0 439.33 167.6" ng-class="{'is-indigo': scrolledToBodyIndigo, 'is-white': scrolledToBodyWhite, 'is-rotated': heroTop}">
    <path fill="#fff" class="c-logo-layer" d="M33.14 5.72c-3.7-5.7-12.8-5.8-14.8-5.7l-1.9 2.7-4.3.3-.3.6c-10.5 32.2-11.2 51-11.7 62.8-.8 19.3 2.1 38.8 4.4 41.4a3 3 0 0 0 2.3 1.1c2.2-.1 2.9-3.1 3.4-4.7a21.42 21.42 0 0 0 .5-3.9c.7-7.5 3-27.2 12.2-59 6.7-23 12.2-32.4 10.2-35.6zM225.14 59.62a16.83 16.83 0 0 0-10.7-3.8 17.12 17.12 0 0 0-6.5 1.3c.1-.2.7-1.8.7-1.8l-3.6-1.3a16.43 16.43 0 0 0-1.2 1.4c.5-1.1 1.1-2.3 1.1-2.3-1-.5-7.8-2-11.4.5-3.4 2.4-8.8 13.5-10.1 21.7-1.9 12-1.9 20.7 1 24.8a11.22 11.22 0 0 0 7.9 4.7 10.87 10.87 0 0 0 1.8.1c11.6-.1 25.6-15.6 29.2-21 6.5-9.6 7.2-19.6 1.8-24.3zm-31.2 23.7a22.59 22.59 0 0 1 .7-4 1.94 1.94 0 0 0 1.6.8c2 .2 4-1.1 5.7-3 6.2-7.2 11.3-9.7 13.9-9.8q1 0 1.2.3c.2 1.3-1.7 6.6-5.5 11.2-3.1 3.7-8.7 10.1-13.3 11.5-2.4.8-5.1-.4-4.3-7z"></path>
    <path fill="#fff" class="c-logo-layer" d="M313.44 48.42c9.1-8.6 15.5-15 18.9-21.4 3.8-7.1 4.8-11.6 3.6-15.6a9.84 9.84 0 0 0-9.4-6.6 11.48 11.48 0 0 0-3.1.4c-6.6 1.6-13 5.7-22.6 20.7a120.52 120.52 0 0 0-12.3 26.5c-4.3 2.8-22.5 10.7-24.7 12a136.21 136.21 0 0 0-10.5-10.2c-6.1-5.5-8.3-9.1-8.2-13.4.1-5.5 4.7-12.2 11.6-16.5 7.7-4.7 21.7-6.4 23.6-5.8-1.6 3.1-6.2 7.4-9.1 9.2-3.4 2.2-9 3.5-10.5 3.7-.7-1.4-2.2-.7-2.7-.4-1.4.8-1.9 6.2-1.8 8 .1 3.4 1.9 10.1 6.1 12.2a10.74 10.74 0 0 0 4.9 1.2c3.6 0 7.7-1.7 11.8-5.4 9.1-8.1 14.1-17.6 15.1-22.2.3-1.3.6-8-1.9-11.3-1.9-2.5-4.9-5-11.4-6.5a55.21 55.21 0 0 0-30 1.4c-12.1 3.9-23.1 11.2-27.6 20.9-6.8 14.5 6.2 25.7 29.5 41.6-4 2.4-6.7 4.1-8.7 5.5-13.5 9.4-22.9 18.6-23.6 27.4-.7 8.1 3.5 15.7 11.5 17.1a21.86 21.86 0 0 0 3.6.3c10.1.1 27.1-10.6 34.5-20.7 4.6-6.4 6.2-13 4.3-18.8a41.7 41.7 0 0 0-2.4-5.8 127.7 127.7 0 0 1 12.7-6.8c-6.1 20-6.1 29.8.1 40.6a24.47 24.47 0 0 0 2.9 2.3l-.8-4.3c0 .2 1.8 5.1 2 5.9l4 2.7a78.48 78.48 0 0 1-2.4-19.7c.1-10.3 2.9-19.5 9.7-37.1 6.8-5.3 10.2-8.2 13.3-11.1zm11.8-31.3c-2.8 5.8-10.8 16.5-17.2 21.8a10.59 10.59 0 0 0-1.2 1c7.9-13.8 14.8-20.5 18.4-22.8zm-77.5 76.3c.8-.7 2.9-2.4 3.4-2.9s2.4-2 9.8-7.2a2.35 2.35 0 0 1 .2.8c1.3 4.4-1.1 8.2-5.8 11.1-2.9 1.8-6.3 3-8.4 3a2.67 2.67 0 0 1-2-.6c-.8-.9-.5-1.3 2.8-4.2zM179.24 55.12c-1.5-1.8-4.7-1.8-5.8-1.7l-2.5.2-1.2 1.8c-.7-.6-2.3-2.9-4.2-2.9a9.76 9.76 0 0 0-5.4 1.7c-3.6 2.2-6.4 7-12.2 13.2-2.1 2.2-4.3 4.7-6.5 7.1a131.93 131.93 0 0 1-9.7 9.2 18.75 18.75 0 0 1-1.5 1.2 43.24 43.24 0 0 1 3.3-14.1c3.9-9 3.7-12.2 3.7-12.2s-10.2-6.8-14.1 2.6a7.49 7.49 0 0 0-.5 1.6 4.25 4.25 0 0 1-.5 1.7 134.4 134.4 0 0 1-7 11.5c-6.6 9.1-11 14.8-12.9 15.4-.2-1.7.8-8.3 2-13.9 1.2-2.2 8.8-16.2 13.3-30.6 17.1-54.4-7.4-42-14.6-18.9a198.13 198.13 0 0 0-6 26.5c-.5-.2-3.3-2.8-7.1-1.7-3.6 1.1-7.2 5-10.3 9.8-2.2 3.4-4.1 7.2-4.7 7.9-2.9 3.2-11 11.7-16.3 16.5 1.4-3.9 3-10.3 5.8-18.7 2-6.2 2.2-9.5 1.7-12.9a7.59 7.59 0 0 0-7.5-6.7c-5.2 0-11.5 4.7-18 10.8 0 0 2-5.8-.1-6.7s-7.8-.2-12.8 2.9l-.5 1.8-2.2.9s-5.1 17.7-7.2 33.2c-.6 4.4-.1 8.3 1.8 10.4 2.3 2.6 8.3 3.1 8.3 3.1s3.2-14.7 8.3-22.6c6-9.3 12.4-14.7 19.6-18.3-3 7.5-13.6 35.5-8.7 39.8a5.58 5.58 0 0 0 3.6 1.2c3.2 0 6.4-2.5 8.3-3.7 2.5-1.6 9.1-7.2 13.1-10.7 0 3 .7 6.3 3.3 8.3a4.64 4.64 0 0 0 2.9 1c4.5 0 10.7-3.6 15.4-8.5-.1 9 4.2 13.5 7.5 13.5 9.2 0 15.5-11.5 18-14.5a14.28 14.28 0 0 0 .3 2.9c1.2 5.3 4.1 6.4 6.3 6.4 6.1-.1 14.5-7.2 16-8.4.1 2.7.7 6.1 3.2 7.7a5.38 5.38 0 0 0 2.7.8c3.7 0 8.7-3.1 11.8-5.7a51.52 51.52 0 0 0 4.7-4.5c-1.1 10.2-3.1 23.3-7.8 46.9-1 5.1-2.8 14.1-7.4 13.1-4.4 0-10.7-8.3-17.1-14.7-10.5-10.6-18.6-18.2-33.8-25-3.6-1.6-13-3.9-19.9-3.4-12.1.9-17.5 2.4-19.3 7.5 0 0-2.3.1-2.8 4.3-.6 5.1 1.3 13.8 3 18.5 1.6 4.5 4.4 5.9 6.4 6.3a3.49 3.49 0 0 0 3.1-1 4.63 4.63 0 0 0 1.3-3.2 2.94 2.94 0 0 0-1.7-3c-.2-3 4.2-6 11.4-6.3 11.5-.3 26.2 5.5 34.1 10.8 9.5 6.4 21.6 17 25.2 20.2 5.1 4.5 12.7 8.4 18 6.1 10.9-4.8 12.3-25.5 16.1-52 2.3-16.5 3.8-26.8 4.4-33.1.9-8.8 1.4-14.1 1.9-15.7 1.4-4.2 2.3-8.2 0-11zm-12.4 8.8c-.2.8-1 2-1.2 2.8a66.69 66.69 0 0 1-7.5 10.4 72.21 72.21 0 0 1-7.1 7.3 40.48 40.48 0 0 1 5.7-10.7 49.51 49.51 0 0 1 10.1-9.8zm-71.3.2l-.6 7.6c-.8 1.6-7.5 8.9-12.1 11.3a67.38 67.38 0 0 1 5.1-10.9c2.5-3.9 5.8-7.2 7.6-8z"></path>
    <path fill="#fff" class="c-logo-layer" d="M135.24 52.42c2.7.4 6.1-1.2 7.7-5.8 1.4-4.1 1.8-7 6.5-12.6a36.61 36.61 0 0 1 4.5-4.4s-5.2.6-7.1 1.6a7.91 7.91 0 0 0-.8-1.3 19.74 19.74 0 0 0-12.9 7.5c-3.2 4-4 7.8-3 10.7a7 7 0 0 0 5.1 4.3zM438.44 76.42a4.79 4.79 0 0 0 .4-1.4 2.7 2.7 0 0 0-.9-2s-9.7-10.6-12.5-11.7a4.59 4.59 0 0 0-5.4 1.4 4.4 4.4 0 0 0-.8 2.6 3.55 3.55 0 0 0 .8 2 2.19 2.19 0 0 0 2.2.4c1.5 1.1-1.4 23.2-21.4 27.3-12.1 2.5-20-6.9-21.7-10 0 0 5.4-5.4 9.1-9.9 12.4-15.1 8.3-26.3 4-29.7-2.9-2.3-10-4.3-16.7 2-3.8 3.6-7.3 9.2-9.1 18.8a45.64 45.64 0 0 0-.7 12.7 46.42 46.42 0 0 1-9.2 6.1c-.1 0-.1.1-.2.1a63.12 63.12 0 0 1 .5-9.1 193.88 193.88 0 0 1 7.2-32c27.4-15.1 44.3-8.9 44.3-8.9.5-2.9.6-7-3.9-12.6s-23-.8-35.4 5.1c.2-.8.7-1.9.9-2.6 1.8-6.4 2.9-9.6 2.6-10.9-.3-1.5-2.4-4.4-5.8-5.7l-.4 1.2-2.3-1s-1.5 4.3-7.9 24.6c-2.8 1.5-8.9 5.4-10.6 6.5-5.6 3.7-6.9 4.3-7.9 6.3-.7 1.5-.1 4.7 1.3 6.5 1.6 2.1 4.8 4.7 7.2 2.4a42.38 42.38 0 0 1 4-3.1 204.14 204.14 0 0 1-6.9 19.4c-4 8.3-7.4 11-9.7 12.1.4-2.2 1.2-6.1 2.2-10.7.3-1.4.6-2.6.9-3.8.2-.6.3-1.3.5-1.8 1.6-5.7 1.7-8.6-.7-10.6-.8-.6-5.7-4.2-5.7-4.2s-1 1.1-1.9 2.2c0 0-2.7-1.7-5-1.4-5.1.6-10.8 5.7-15.9 10.9-3.9 4-12.3 16.3-10.7 27.9a9.3 9.3 0 0 0 9 8.5 12.25 12.25 0 0 0 1.9-.2c6.2-1.1 12.9-7.4 13.5-8.2.1-.1.2-.2.2-.3 1.3 7.8 5.2 8.7 6.2 8.7 4.1 0 11.5-6.9 13.5-8.8.5 4.2 3.3 9.9 6 11.9a8.22 8.22 0 0 0 5 1.9c3.9 0 10.2-4.2 17.8-12.1 1.2 2.6 10.2 11.4 23.3 13.1 17.4 2.4 31.7-7.7 38.2-14.8 5.2-5.9 9.4-11.7 6.6-15.1zm-116-6.5a44.71 44.71 0 0 1-7.9 11.9c-2.2 2.4-3.5 3.4-4.3 3.4a2 2 0 0 1-.7-.1c-.3-.5 0-5.3 5.5-12.5a31.94 31.94 0 0 1 10.2-8.6c-.3.9-2.5 5.2-2.8 5.9zm63.9-17.2a40.19 40.19 0 0 1-6.8 14.1 74.32 74.32 0 0 1-5 6c3.4-12.3 8.7-18.1 11.8-20.1z"></path>
</svg>